<mxfile host="app.diagrams.net" modified="2023-03-24T18:12:06.910Z" agent="Mozilla/5.0 (Windows NT 10.0; Win64; x64) AppleWebKit/537.36 (KHTML, like Gecko) Chrome/111.0.0.0 Safari/537.36 Edg/111.0.1661.51" etag="O3RsIPhqN-7MmfeKyw8G" version="21.1.0" type="device">
  <diagram name="Страница 1" id="a3P9u6cnhdrN-g0bfrfS">
    <mxGraphModel dx="828" dy="1605" grid="1" gridSize="10" guides="1" tooltips="1" connect="1" arrows="1" fold="1" page="1" pageScale="1" pageWidth="827" pageHeight="1169" math="0" shadow="0">
      <root>
        <mxCell id="0" />
        <mxCell id="1" parent="0" />
        <mxCell id="YN7k_DSdsQhJTX5RIaJS-16" value="Field" style="swimlane;whiteSpace=wrap;html=1;startSize=23;" parent="1" vertex="1">
          <mxGeometry x="20" y="10" width="1621" height="1150" as="geometry" />
        </mxCell>
        <mxCell id="YN7k_DSdsQhJTX5RIaJS-18" value="Brawler[NbrBraw]" style="swimlane;whiteSpace=wrap;html=1;" parent="YN7k_DSdsQhJTX5RIaJS-16" vertex="1">
          <mxGeometry x="11" y="110" width="1359" height="1030" as="geometry" />
        </mxCell>
        <mxCell id="YN7k_DSdsQhJTX5RIaJS-37" value="Ability Card[&lt;b style=&quot;border-color: var(--border-color); text-align: left; background-color: rgb(255, 255, 255);&quot;&gt;NbrBaku&lt;/b&gt;]" style="swimlane;whiteSpace=wrap;html=1;startSize=23;" parent="YN7k_DSdsQhJTX5RIaJS-18" vertex="1">
          <mxGeometry x="10" y="290" width="440" height="730" as="geometry" />
        </mxCell>
        <mxCell id="YN7k_DSdsQhJTX5RIaJS-44" value="&lt;b&gt;Field&lt;/b&gt; //(Ссылка на корень)" style="rounded=0;whiteSpace=wrap;html=1;fillColor=#dae8fc;strokeColor=#6c8ebf;" parent="YN7k_DSdsQhJTX5RIaJS-37" vertex="1">
          <mxGeometry x="109" y="320" width="210" height="30" as="geometry" />
        </mxCell>
        <mxCell id="YN7k_DSdsQhJTX5RIaJS-38" value="Bakugan[&lt;b style=&quot;border-color: var(--border-color); text-align: left; background-color: rgb(255, 255, 255);&quot;&gt;NbrBaku&lt;/b&gt;]" style="swimlane;whiteSpace=wrap;html=1;startSize=23;" parent="YN7k_DSdsQhJTX5RIaJS-18" vertex="1">
          <mxGeometry x="460" y="290" width="440" height="730" as="geometry" />
        </mxCell>
        <mxCell id="YN7k_DSdsQhJTX5RIaJS-43" value="&lt;b&gt;Field&lt;/b&gt; //(Ссылка на корень)" style="rounded=0;whiteSpace=wrap;html=1;fillColor=#dae8fc;strokeColor=#6c8ebf;" parent="YN7k_DSdsQhJTX5RIaJS-38" vertex="1">
          <mxGeometry x="99" y="300" width="210" height="30" as="geometry" />
        </mxCell>
        <mxCell id="YN7k_DSdsQhJTX5RIaJS-48" value="&lt;b&gt;state&lt;/b&gt;&lt;br&gt;0 - в инвентаре&lt;br&gt;1 - на вороте&lt;br&gt;2 - в бою&lt;br&gt;3 - вырублен&lt;br&gt;4 - убит измерением" style="rounded=1;whiteSpace=wrap;html=1;" parent="YN7k_DSdsQhJTX5RIaJS-38" vertex="1">
          <mxGeometry x="69" y="50" width="120" height="90" as="geometry" />
        </mxCell>
        <mxCell id="YN7k_DSdsQhJTX5RIaJS-39" value="Gate Card[&lt;b style=&quot;border-color: var(--border-color); text-align: left; background-color: rgb(255, 255, 255);&quot;&gt;NbrBaku&lt;/b&gt;]" style="swimlane;whiteSpace=wrap;html=1;startSize=23;" parent="YN7k_DSdsQhJTX5RIaJS-18" vertex="1">
          <mxGeometry x="910" y="290" width="440" height="730" as="geometry" />
        </mxCell>
        <mxCell id="YN7k_DSdsQhJTX5RIaJS-42" value="&lt;b&gt;Field&lt;/b&gt; //(Ссылка на корень)" style="rounded=0;whiteSpace=wrap;html=1;fillColor=#dae8fc;strokeColor=#6c8ebf;" parent="YN7k_DSdsQhJTX5RIaJS-39" vertex="1">
          <mxGeometry x="119" y="280" width="210" height="30" as="geometry" />
        </mxCell>
        <mxCell id="YN7k_DSdsQhJTX5RIaJS-47" value="&lt;b&gt;2) throwBakugan&lt;br&gt;(int x, int y, int bakuganID)&lt;/b&gt;&lt;br&gt;Боец пытается отправить бакугана" style="rounded=1;whiteSpace=wrap;html=1;" parent="YN7k_DSdsQhJTX5RIaJS-18" vertex="1">
          <mxGeometry x="29" y="100" width="181" height="60" as="geometry" />
        </mxCell>
        <mxCell id="YN7k_DSdsQhJTX5RIaJS-49" value="&lt;b&gt;3) useAbility(uint abilityID)&lt;/b&gt;&lt;br&gt;Активировать карту способности" style="rounded=1;whiteSpace=wrap;html=1;" parent="YN7k_DSdsQhJTX5RIaJS-18" vertex="1">
          <mxGeometry x="29" y="170" width="181" height="60" as="geometry" />
        </mxCell>
        <mxCell id="YN7k_DSdsQhJTX5RIaJS-50" value="&lt;b&gt;4) useGate(int x, int y)&lt;/b&gt;&lt;br&gt;Открыть карту ворот" style="rounded=1;whiteSpace=wrap;html=1;" parent="YN7k_DSdsQhJTX5RIaJS-18" vertex="1">
          <mxGeometry x="232" y="30" width="178" height="60" as="geometry" />
        </mxCell>
        <mxCell id="YN7k_DSdsQhJTX5RIaJS-51" value="&lt;b&gt;1) setGate(int x, int y, uint gateID)&lt;/b&gt;&lt;br&gt;Установить карту ворот" style="rounded=1;whiteSpace=wrap;html=1;" parent="YN7k_DSdsQhJTX5RIaJS-18" vertex="1">
          <mxGeometry x="29" y="30" width="181" height="60" as="geometry" />
        </mxCell>
        <mxCell id="YN7k_DSdsQhJTX5RIaJS-52" value="&lt;b&gt;Field&lt;/b&gt; //(Ссылка на корень)" style="rounded=0;whiteSpace=wrap;html=1;fillColor=#dae8fc;strokeColor=#6c8ebf;" parent="YN7k_DSdsQhJTX5RIaJS-18" vertex="1">
          <mxGeometry x="429" y="40" width="210" height="30" as="geometry" />
        </mxCell>
        <mxCell id="YN7k_DSdsQhJTX5RIaJS-66" value="&lt;b&gt;5)&amp;nbsp;setDoomCard()&lt;/b&gt;&lt;br&gt;Установить карту смерти" style="rounded=1;whiteSpace=wrap;html=1;" parent="YN7k_DSdsQhJTX5RIaJS-18" vertex="1">
          <mxGeometry x="232" y="100" width="178" height="60" as="geometry" />
        </mxCell>
        <mxCell id="YN7k_DSdsQhJTX5RIaJS-67" value="&lt;b&gt;5)&amp;nbsp;removeDoomCard()&lt;/b&gt;&lt;br&gt;Убрать карту смерти" style="rounded=1;whiteSpace=wrap;html=1;" parent="YN7k_DSdsQhJTX5RIaJS-18" vertex="1">
          <mxGeometry x="232" y="170" width="178" height="60" as="geometry" />
        </mxCell>
        <mxCell id="YN7k_DSdsQhJTX5RIaJS-25" value="Gate[NbrBraw, NbrBaku]" style="swimlane;whiteSpace=wrap;html=1;" parent="YN7k_DSdsQhJTX5RIaJS-16" vertex="1">
          <mxGeometry x="1381" y="110" width="229" height="1030" as="geometry">
            <mxRectangle x="571" y="110" width="180" height="30" as="alternateBounds" />
          </mxGeometry>
        </mxCell>
        <mxCell id="YN7k_DSdsQhJTX5RIaJS-27" value="&lt;b&gt;Bakugan[NbrBaku * NbrBraw]&lt;/b&gt;&lt;br&gt;(Ссылается на бакуганов установленных на этой карте)" style="rounded=0;whiteSpace=wrap;html=1;fillColor=#dae8fc;strokeColor=#6c8ebf;" parent="YN7k_DSdsQhJTX5RIaJS-25" vertex="1">
          <mxGeometry x="10" y="240" width="210" height="60" as="geometry" />
        </mxCell>
        <mxCell id="YN7k_DSdsQhJTX5RIaJS-28" value="&lt;b&gt;Gate Card&lt;/b&gt;&lt;br&gt;(Ссылается на бойца поместившего сюда свою карту ворот)" style="rounded=0;whiteSpace=wrap;html=1;fillColor=#dae8fc;strokeColor=#6c8ebf;" parent="YN7k_DSdsQhJTX5RIaJS-25" vertex="1">
          <mxGeometry x="9" y="310" width="210" height="60" as="geometry" />
        </mxCell>
        <mxCell id="YN7k_DSdsQhJTX5RIaJS-33" value="&lt;b&gt;(x,y)&lt;/b&gt; - положение в простанстве" style="rounded=0;whiteSpace=wrap;html=1;fillColor=#d5e8d4;strokeColor=#82b366;" parent="YN7k_DSdsQhJTX5RIaJS-25" vertex="1">
          <mxGeometry x="9" y="30" width="211" height="60" as="geometry" />
        </mxCell>
        <mxCell id="YN7k_DSdsQhJTX5RIaJS-34" value="&lt;b&gt;isBusy = false;&lt;/b&gt;// стоит чья-то карта" style="rounded=0;whiteSpace=wrap;html=1;fillColor=#d5e8d4;strokeColor=#82b366;" parent="YN7k_DSdsQhJTX5RIaJS-25" vertex="1">
          <mxGeometry x="9" y="100" width="211" height="60" as="geometry" />
        </mxCell>
        <mxCell id="YN7k_DSdsQhJTX5RIaJS-35" value="&lt;b&gt;gateOwner;&lt;/b&gt;// это brawlerID владельца" style="rounded=0;whiteSpace=wrap;html=1;fillColor=#d5e8d4;strokeColor=#82b366;" parent="YN7k_DSdsQhJTX5RIaJS-25" vertex="1">
          <mxGeometry x="9" y="170" width="211" height="60" as="geometry" />
        </mxCell>
        <mxCell id="YN7k_DSdsQhJTX5RIaJS-36" value="&lt;b&gt;Field&lt;/b&gt; //(Ссылка на корень)" style="rounded=0;whiteSpace=wrap;html=1;fillColor=#dae8fc;strokeColor=#6c8ebf;" parent="YN7k_DSdsQhJTX5RIaJS-25" vertex="1">
          <mxGeometry x="10" y="380" width="210" height="30" as="geometry" />
        </mxCell>
        <mxCell id="YN7k_DSdsQhJTX5RIaJS-45" value="&lt;b&gt;placePlayerGate&lt;br&gt;(uint brawlerID, uint gateID)&lt;/b&gt;&lt;br&gt;поместить карту gateID от бойца brawlerID&amp;nbsp;" style="rounded=1;whiteSpace=wrap;html=1;" parent="YN7k_DSdsQhJTX5RIaJS-25" vertex="1">
          <mxGeometry x="9" y="420" width="211" height="60" as="geometry" />
        </mxCell>
        <mxCell id="YN7k_DSdsQhJTX5RIaJS-46" value="&lt;b&gt;removePlayerGate()&lt;/b&gt;&lt;br&gt;Убрать карту игрока с карты" style="rounded=1;whiteSpace=wrap;html=1;" parent="YN7k_DSdsQhJTX5RIaJS-25" vertex="1">
          <mxGeometry x="10" y="495" width="210" height="60" as="geometry" />
        </mxCell>
        <mxCell id="YN7k_DSdsQhJTX5RIaJS-31" value="&lt;div&gt;&lt;b&gt;NbrBaku = 3;&lt;/b&gt;&amp;nbsp; /// - Количество доступных бакуганов&lt;/div&gt;&lt;div&gt;&lt;b&gt;NbrTeam = 2;&lt;/b&gt;&amp;nbsp; /// - Количество команд&lt;/div&gt;&lt;div&gt;&lt;b&gt;NbrBraw = 2;&lt;/b&gt;&amp;nbsp; /// - Количество бойцов (независимо от команды)&lt;/div&gt;" style="rounded=1;whiteSpace=wrap;html=1;align=left;labelBackgroundColor=none;fillColor=#d5e8d4;strokeColor=#82b366;" parent="YN7k_DSdsQhJTX5RIaJS-16" vertex="1">
          <mxGeometry x="11" y="30" width="390" height="60" as="geometry" />
        </mxCell>
        <mxCell id="YN7k_DSdsQhJTX5RIaJS-41" value="&lt;b&gt;appLog&lt;br&gt;battleLog&lt;/b&gt;&lt;br&gt;логирование процессов" style="rounded=1;whiteSpace=wrap;html=1;fillColor=#d5e8d4;strokeColor=#82b366;" parent="YN7k_DSdsQhJTX5RIaJS-16" vertex="1">
          <mxGeometry x="420" y="30" width="120" height="60" as="geometry" />
        </mxCell>
        <mxCell id="YN7k_DSdsQhJTX5RIaJS-68" value="&lt;b&gt;6)&amp;nbsp;skipTurn()&lt;/b&gt;&lt;br&gt;Пропустить/завершить ход" style="rounded=1;whiteSpace=wrap;html=1;" parent="1" vertex="1">
          <mxGeometry x="476" y="229" width="178" height="60" as="geometry" />
        </mxCell>
        <mxCell id="gnqK-Q3UBp_WLND6Pj9h-5" style="edgeStyle=orthogonalEdgeStyle;rounded=0;orthogonalLoop=1;jettySize=auto;html=1;entryX=0.5;entryY=1;entryDx=0;entryDy=0;" parent="1" source="gnqK-Q3UBp_WLND6Pj9h-1" target="gnqK-Q3UBp_WLND6Pj9h-2" edge="1">
          <mxGeometry relative="1" as="geometry" />
        </mxCell>
        <mxCell id="gnqK-Q3UBp_WLND6Pj9h-1" value="Начало битвы" style="rounded=0;whiteSpace=wrap;html=1;" parent="1" vertex="1">
          <mxGeometry x="2420" y="1085" width="120" height="60" as="geometry" />
        </mxCell>
        <mxCell id="gnqK-Q3UBp_WLND6Pj9h-4" value="Этап 1" style="swimlane;whiteSpace=wrap;html=1;" parent="1" vertex="1">
          <mxGeometry x="2410" y="860" width="140" height="200" as="geometry">
            <mxRectangle x="2430" y="330" width="140" height="30" as="alternateBounds" />
          </mxGeometry>
        </mxCell>
        <mxCell id="gnqK-Q3UBp_WLND6Pj9h-9" style="edgeStyle=orthogonalEdgeStyle;rounded=0;orthogonalLoop=1;jettySize=auto;html=1;entryX=0.5;entryY=1;entryDx=0;entryDy=0;" parent="gnqK-Q3UBp_WLND6Pj9h-4" source="gnqK-Q3UBp_WLND6Pj9h-2" target="gnqK-Q3UBp_WLND6Pj9h-8" edge="1">
          <mxGeometry relative="1" as="geometry" />
        </mxCell>
        <mxCell id="gnqK-Q3UBp_WLND6Pj9h-2" value="Каждый игрок размещает по одной карте на поле боя" style="rounded=0;whiteSpace=wrap;html=1;" parent="gnqK-Q3UBp_WLND6Pj9h-4" vertex="1">
          <mxGeometry x="10" y="120" width="120" height="60" as="geometry" />
        </mxCell>
        <mxCell id="gnqK-Q3UBp_WLND6Pj9h-8" value="Настройка QueueID.&amp;nbsp;&lt;br&gt;field.SortBrawlers();" style="rounded=0;whiteSpace=wrap;html=1;" parent="gnqK-Q3UBp_WLND6Pj9h-4" vertex="1">
          <mxGeometry x="10" y="40" width="120" height="60" as="geometry" />
        </mxCell>
        <mxCell id="gnqK-Q3UBp_WLND6Pj9h-6" value="Этап 2 для каждого игрока из списка QueueID (опираясь на currBrawler)" style="swimlane;whiteSpace=wrap;html=1;" parent="1" vertex="1">
          <mxGeometry x="1920" y="40" width="1120" height="791" as="geometry">
            <mxRectangle x="2200" y="90" width="310" height="30" as="alternateBounds" />
          </mxGeometry>
        </mxCell>
        <mxCell id="gnqK-Q3UBp_WLND6Pj9h-35" style="edgeStyle=orthogonalEdgeStyle;rounded=0;orthogonalLoop=1;jettySize=auto;html=1;entryX=0.5;entryY=1;entryDx=0;entryDy=0;" parent="gnqK-Q3UBp_WLND6Pj9h-6" source="gnqK-Q3UBp_WLND6Pj9h-19" target="gnqK-Q3UBp_WLND6Pj9h-29" edge="1">
          <mxGeometry relative="1" as="geometry" />
        </mxCell>
        <mxCell id="gnqK-Q3UBp_WLND6Pj9h-19" value="&lt;b&gt;6)&amp;nbsp;skipTurn()&lt;/b&gt;&lt;br&gt;Пропустить/завершить ход" style="rounded=1;whiteSpace=wrap;html=1;" parent="gnqK-Q3UBp_WLND6Pj9h-6" vertex="1">
          <mxGeometry x="471" y="150" width="178" height="60" as="geometry" />
        </mxCell>
        <mxCell id="gnqK-Q3UBp_WLND6Pj9h-29" value="Право на действие переходит другому игроку через&amp;nbsp;field.nextPlayer();&lt;br&gt;&lt;br&gt;Цикл бесконечен пока не выживет единственная команда" style="rounded=0;whiteSpace=wrap;html=1;" parent="gnqK-Q3UBp_WLND6Pj9h-6" vertex="1">
          <mxGeometry x="460" y="40" width="200" height="90" as="geometry" />
        </mxCell>
        <mxCell id="gnqK-Q3UBp_WLND6Pj9h-32" value="Игрок может сделать следующее:&amp;nbsp;&lt;br style=&quot;border-color: var(--border-color); font-weight: 400;&quot;&gt;&lt;span style=&quot;font-weight: 400;&quot;&gt;(Если не заблокировали ход и всё еще живой)&lt;/span&gt;" style="swimlane;whiteSpace=wrap;html=1;startSize=40;" parent="gnqK-Q3UBp_WLND6Pj9h-6" vertex="1">
          <mxGeometry x="150" y="240" width="820" height="530" as="geometry">
            <mxRectangle x="2070" y="460" width="140" height="30" as="alternateBounds" />
          </mxGeometry>
        </mxCell>
        <mxCell id="gnqK-Q3UBp_WLND6Pj9h-13" value="&lt;b&gt;3) useAbility(uint abilityID)&lt;/b&gt;&lt;br&gt;Активировать карту способности (1 раз)&lt;br&gt;&lt;br&gt;&lt;b&gt;1)&lt;/b&gt; Карта формально закреплена за бакуганом, но это не обязательно.&lt;br&gt;&lt;b&gt;2)&lt;/b&gt; При активации может меняться ситуация на поле боя" style="rounded=1;whiteSpace=wrap;html=1;" parent="gnqK-Q3UBp_WLND6Pj9h-32" vertex="1">
          <mxGeometry x="170" y="60" width="211" height="140" as="geometry" />
        </mxCell>
        <mxCell id="gnqK-Q3UBp_WLND6Pj9h-14" value="&lt;b&gt;4) useGate(int x, int y)&lt;/b&gt;&lt;br&gt;Открыть карту ворот&lt;br&gt;(1 раз)&lt;br&gt;&lt;br&gt;&lt;b&gt;1)&lt;/b&gt; Карту можно открыть только если на карте находится хоть кто-то&lt;br&gt;&lt;b&gt;2)&lt;/b&gt; При активации может меняться ситуация на поле боя" style="rounded=1;whiteSpace=wrap;html=1;" parent="gnqK-Q3UBp_WLND6Pj9h-32" vertex="1">
          <mxGeometry x="440" y="60" width="210" height="140" as="geometry" />
        </mxCell>
        <mxCell id="gnqK-Q3UBp_WLND6Pj9h-12" value="&lt;b&gt;2) throwBakugan&lt;br&gt;(int x, int y, int bakuganID)&lt;/b&gt;&lt;br&gt;Боец пытается отправить бакугана(1 раз)&lt;br&gt;&lt;br&gt;&lt;b&gt;1)&lt;/b&gt; Нельзя отправить бакугана на карту союзника (пока не будет активирована соответстующая способность)&lt;br&gt;&lt;b&gt;2) &lt;/b&gt;Если бакуган попадает на карту с врагом - инициируется новый или присоединяется к существующему battleLink&lt;br&gt;&lt;b&gt;3)&lt;/b&gt; BattleLink не зависит от карты ворот.&lt;br&gt;&lt;b&gt;4)&lt;/b&gt; BattleLink разрывается как только Queue дойдет до инициатора BattleLink" style="rounded=1;whiteSpace=wrap;html=1;" parent="gnqK-Q3UBp_WLND6Pj9h-32" vertex="1">
          <mxGeometry x="322" y="220" width="181" height="280" as="geometry" />
        </mxCell>
        <mxCell id="gnqK-Q3UBp_WLND6Pj9h-17" value="&lt;b&gt;5)&amp;nbsp;setDoomCard()&lt;br&gt;&lt;/b&gt;&lt;b style=&quot;border-color: var(--border-color);&quot;&gt;removeDoomCard()&lt;/b&gt;&lt;br&gt;Установить/удалить &lt;br&gt;карту смерти&lt;br&gt;&lt;br&gt;&lt;b&gt;1)&lt;/b&gt; Данная карта влияет на то, возможно ли будет бакугана возродить в течении игры&lt;br&gt;&lt;b&gt;2)&lt;/b&gt; Если бакуган был убит, по окончанию битвы он будет удален из инвентаря игрока" style="rounded=1;whiteSpace=wrap;html=1;" parent="gnqK-Q3UBp_WLND6Pj9h-32" vertex="1">
          <mxGeometry x="620.5" y="220" width="178" height="280" as="geometry" />
        </mxCell>
        <mxCell id="gnqK-Q3UBp_WLND6Pj9h-20" value="&lt;b&gt;1) setGate(int x, int y, uint gateID)&lt;/b&gt;&lt;br&gt;Установить карту ворот (несколько раз)&lt;br&gt;&lt;br&gt;&lt;b&gt;1)&lt;/b&gt;&amp;nbsp;Главное чтобы слот&lt;br&gt;&amp;nbsp;(х,у) был пустой" style="rounded=1;whiteSpace=wrap;html=1;" parent="gnqK-Q3UBp_WLND6Pj9h-32" vertex="1">
          <mxGeometry x="21.5" y="220" width="181" height="280" as="geometry" />
        </mxCell>
        <mxCell id="gnqK-Q3UBp_WLND6Pj9h-34" style="edgeStyle=orthogonalEdgeStyle;rounded=0;orthogonalLoop=1;jettySize=auto;html=1;entryX=0.5;entryY=1;entryDx=0;entryDy=0;" parent="gnqK-Q3UBp_WLND6Pj9h-6" source="gnqK-Q3UBp_WLND6Pj9h-32" target="gnqK-Q3UBp_WLND6Pj9h-19" edge="1">
          <mxGeometry relative="1" as="geometry" />
        </mxCell>
        <mxCell id="gnqK-Q3UBp_WLND6Pj9h-11" style="edgeStyle=orthogonalEdgeStyle;rounded=0;orthogonalLoop=1;jettySize=auto;html=1;entryX=0.5;entryY=1;entryDx=0;entryDy=0;" parent="1" source="gnqK-Q3UBp_WLND6Pj9h-8" target="gnqK-Q3UBp_WLND6Pj9h-32" edge="1">
          <mxGeometry relative="1" as="geometry">
            <mxPoint x="2480" y="790" as="targetPoint" />
          </mxGeometry>
        </mxCell>
        <mxCell id="gnqK-Q3UBp_WLND6Pj9h-37" value="Этап 3 по окончанию битвы" style="swimlane;whiteSpace=wrap;html=1;" parent="1" vertex="1">
          <mxGeometry x="2380" y="-290" width="200" height="230" as="geometry" />
        </mxCell>
        <mxCell id="gnqK-Q3UBp_WLND6Pj9h-41" style="edgeStyle=orthogonalEdgeStyle;rounded=0;orthogonalLoop=1;jettySize=auto;html=1;entryX=0.5;entryY=1;entryDx=0;entryDy=0;" parent="gnqK-Q3UBp_WLND6Pj9h-37" source="gnqK-Q3UBp_WLND6Pj9h-38" target="gnqK-Q3UBp_WLND6Pj9h-40" edge="1">
          <mxGeometry relative="1" as="geometry" />
        </mxCell>
        <mxCell id="gnqK-Q3UBp_WLND6Pj9h-38" value="Битва завершится если в живых останется только одна команда" style="rounded=0;whiteSpace=wrap;html=1;" parent="gnqK-Q3UBp_WLND6Pj9h-37" vertex="1">
          <mxGeometry x="40" y="150" width="120" height="60" as="geometry" />
        </mxCell>
        <mxCell id="gnqK-Q3UBp_WLND6Pj9h-40" value="Формируются xml файлы для бойцов в качестве результатов" style="rounded=0;whiteSpace=wrap;html=1;" parent="gnqK-Q3UBp_WLND6Pj9h-37" vertex="1">
          <mxGeometry x="40" y="40" width="120" height="60" as="geometry" />
        </mxCell>
        <mxCell id="gnqK-Q3UBp_WLND6Pj9h-39" style="edgeStyle=orthogonalEdgeStyle;rounded=0;orthogonalLoop=1;jettySize=auto;html=1;entryX=0.5;entryY=1;entryDx=0;entryDy=0;" parent="1" source="gnqK-Q3UBp_WLND6Pj9h-29" target="gnqK-Q3UBp_WLND6Pj9h-38" edge="1">
          <mxGeometry relative="1" as="geometry" />
        </mxCell>
        <mxCell id="O90Jl7bZLR4odMNvlkuS-23" value="Создание новых BattleLink и присоединение к существующим" style="swimlane;whiteSpace=wrap;html=1;" vertex="1" parent="1">
          <mxGeometry x="330" y="-1000" width="1160" height="800" as="geometry" />
        </mxCell>
        <mxCell id="O90Jl7bZLR4odMNvlkuS-1" value="Есть на карте вражеские бакуганы" style="rounded=0;whiteSpace=wrap;html=1;" vertex="1" parent="O90Jl7bZLR4odMNvlkuS-23">
          <mxGeometry x="381.5" y="260" width="120" height="80" as="geometry" />
        </mxCell>
        <mxCell id="O90Jl7bZLR4odMNvlkuS-2" value="&lt;b&gt;2) throwBakugan&lt;br&gt;(int x, int y, int bakuganID)&lt;/b&gt;&lt;br&gt;Боец пытается отправить бакугана(1 раз)&lt;br&gt;&lt;br&gt;&lt;b&gt;1)&lt;/b&gt; Нельзя отправить бакугана на карту союзника (пока не будет активирована соответстующая способность)&lt;br&gt;&lt;b&gt;2) &lt;/b&gt;Если бакуган попадает на карту с врагом - инициируется новый или присоединяется к существующему battleLink&lt;br&gt;&lt;b&gt;3)&lt;/b&gt; BattleLink не зависит от карты ворот.&lt;br&gt;&lt;b&gt;4)&lt;/b&gt; BattleLink разрывается как только Queue дойдет до инициатора BattleLink" style="rounded=1;whiteSpace=wrap;html=1;" vertex="1" parent="O90Jl7bZLR4odMNvlkuS-23">
          <mxGeometry x="107.5" y="160" width="181" height="280" as="geometry" />
        </mxCell>
        <mxCell id="O90Jl7bZLR4odMNvlkuS-3" value="" style="endArrow=classic;html=1;rounded=0;exitX=1;exitY=0.5;exitDx=0;exitDy=0;entryX=0;entryY=0.5;entryDx=0;entryDy=0;" edge="1" parent="O90Jl7bZLR4odMNvlkuS-23" source="O90Jl7bZLR4odMNvlkuS-2" target="O90Jl7bZLR4odMNvlkuS-1">
          <mxGeometry width="50" height="50" relative="1" as="geometry">
            <mxPoint x="351.5" y="360" as="sourcePoint" />
            <mxPoint x="421.5" y="300" as="targetPoint" />
          </mxGeometry>
        </mxCell>
        <mxCell id="O90Jl7bZLR4odMNvlkuS-4" value="Присоединяемся ко всем боевым спискам где есть эти бакуганы на вороте" style="rounded=0;whiteSpace=wrap;html=1;" vertex="1" parent="O90Jl7bZLR4odMNvlkuS-23">
          <mxGeometry x="582.5" y="120" width="120" height="60" as="geometry" />
        </mxCell>
        <mxCell id="O90Jl7bZLR4odMNvlkuS-5" value="" style="endArrow=classic;html=1;rounded=0;exitX=1;exitY=0;exitDx=0;exitDy=0;entryX=0;entryY=1;entryDx=0;entryDy=0;" edge="1" parent="O90Jl7bZLR4odMNvlkuS-23" source="O90Jl7bZLR4odMNvlkuS-1" target="O90Jl7bZLR4odMNvlkuS-4">
          <mxGeometry width="50" height="50" relative="1" as="geometry">
            <mxPoint x="591.5" y="300" as="sourcePoint" />
            <mxPoint x="641.5" y="250" as="targetPoint" />
          </mxGeometry>
        </mxCell>
        <mxCell id="O90Jl7bZLR4odMNvlkuS-8" value="Да" style="edgeLabel;html=1;align=center;verticalAlign=middle;resizable=0;points=[];" vertex="1" connectable="0" parent="O90Jl7bZLR4odMNvlkuS-5">
          <mxGeometry x="-0.1304" relative="1" as="geometry">
            <mxPoint as="offset" />
          </mxGeometry>
        </mxCell>
        <mxCell id="O90Jl7bZLR4odMNvlkuS-6" value="Карта пустая?" style="rounded=0;whiteSpace=wrap;html=1;" vertex="1" parent="O90Jl7bZLR4odMNvlkuS-23">
          <mxGeometry x="582.5" y="420" width="120" height="60" as="geometry" />
        </mxCell>
        <mxCell id="O90Jl7bZLR4odMNvlkuS-7" value="Нет" style="endArrow=classic;html=1;rounded=0;exitX=1;exitY=1;exitDx=0;exitDy=0;entryX=0;entryY=0;entryDx=0;entryDy=0;" edge="1" parent="O90Jl7bZLR4odMNvlkuS-23" source="O90Jl7bZLR4odMNvlkuS-1" target="O90Jl7bZLR4odMNvlkuS-6">
          <mxGeometry width="50" height="50" relative="1" as="geometry">
            <mxPoint x="531.5" y="340" as="sourcePoint" />
            <mxPoint x="581.5" y="290" as="targetPoint" />
          </mxGeometry>
        </mxCell>
        <mxCell id="O90Jl7bZLR4odMNvlkuS-9" value="Размещаем бакугана и не создаем никаких battleLiink" style="rounded=0;whiteSpace=wrap;html=1;" vertex="1" parent="O90Jl7bZLR4odMNvlkuS-23">
          <mxGeometry x="781.5" y="280" width="120" height="60" as="geometry" />
        </mxCell>
        <mxCell id="O90Jl7bZLR4odMNvlkuS-10" value="На карте находятся союзные бакуганы. В данный момент активирована карта призываюшая дополнительных бакуганов?" style="rounded=0;whiteSpace=wrap;html=1;" vertex="1" parent="O90Jl7bZLR4odMNvlkuS-23">
          <mxGeometry x="781.5" y="540" width="120" height="100" as="geometry" />
        </mxCell>
        <mxCell id="O90Jl7bZLR4odMNvlkuS-11" value="" style="endArrow=classic;html=1;rounded=0;exitX=1;exitY=0;exitDx=0;exitDy=0;entryX=0;entryY=1;entryDx=0;entryDy=0;" edge="1" parent="O90Jl7bZLR4odMNvlkuS-23" source="O90Jl7bZLR4odMNvlkuS-6" target="O90Jl7bZLR4odMNvlkuS-9">
          <mxGeometry width="50" height="50" relative="1" as="geometry">
            <mxPoint x="711.5" y="440" as="sourcePoint" />
            <mxPoint x="761.5" y="390" as="targetPoint" />
          </mxGeometry>
        </mxCell>
        <mxCell id="O90Jl7bZLR4odMNvlkuS-13" value="Да" style="edgeLabel;html=1;align=center;verticalAlign=middle;resizable=0;points=[];" vertex="1" connectable="0" parent="O90Jl7bZLR4odMNvlkuS-11">
          <mxGeometry x="0.2648" y="3" relative="1" as="geometry">
            <mxPoint x="-9" y="13" as="offset" />
          </mxGeometry>
        </mxCell>
        <mxCell id="O90Jl7bZLR4odMNvlkuS-12" value="" style="endArrow=classic;html=1;rounded=0;exitX=1;exitY=1;exitDx=0;exitDy=0;entryX=0;entryY=0;entryDx=0;entryDy=0;" edge="1" parent="O90Jl7bZLR4odMNvlkuS-23" source="O90Jl7bZLR4odMNvlkuS-6" target="O90Jl7bZLR4odMNvlkuS-10">
          <mxGeometry width="50" height="50" relative="1" as="geometry">
            <mxPoint x="751.5" y="500" as="sourcePoint" />
            <mxPoint x="801.5" y="450" as="targetPoint" />
          </mxGeometry>
        </mxCell>
        <mxCell id="O90Jl7bZLR4odMNvlkuS-14" value="Нет" style="edgeLabel;html=1;align=center;verticalAlign=middle;resizable=0;points=[];" vertex="1" connectable="0" parent="O90Jl7bZLR4odMNvlkuS-12">
          <mxGeometry x="-0.0601" y="-1" relative="1" as="geometry">
            <mxPoint as="offset" />
          </mxGeometry>
        </mxCell>
        <mxCell id="O90Jl7bZLR4odMNvlkuS-15" value="" style="endArrow=classic;html=1;rounded=0;exitX=1;exitY=0;exitDx=0;exitDy=0;entryX=0;entryY=1;entryDx=0;entryDy=0;" edge="1" parent="O90Jl7bZLR4odMNvlkuS-23">
          <mxGeometry width="50" height="50" relative="1" as="geometry">
            <mxPoint x="901.5" y="540" as="sourcePoint" />
            <mxPoint x="980.5" y="460" as="targetPoint" />
          </mxGeometry>
        </mxCell>
        <mxCell id="O90Jl7bZLR4odMNvlkuS-16" value="Да" style="edgeLabel;html=1;align=center;verticalAlign=middle;resizable=0;points=[];" vertex="1" connectable="0" parent="O90Jl7bZLR4odMNvlkuS-15">
          <mxGeometry x="0.2648" y="3" relative="1" as="geometry">
            <mxPoint x="-9" y="13" as="offset" />
          </mxGeometry>
        </mxCell>
        <mxCell id="O90Jl7bZLR4odMNvlkuS-19" value="" style="endArrow=classic;html=1;rounded=0;exitX=1;exitY=1;exitDx=0;exitDy=0;entryX=0;entryY=0;entryDx=0;entryDy=0;" edge="1" parent="O90Jl7bZLR4odMNvlkuS-23">
          <mxGeometry width="50" height="50" relative="1" as="geometry">
            <mxPoint x="901.5" y="640" as="sourcePoint" />
            <mxPoint x="980.5" y="700" as="targetPoint" />
          </mxGeometry>
        </mxCell>
        <mxCell id="O90Jl7bZLR4odMNvlkuS-20" value="Нет" style="edgeLabel;html=1;align=center;verticalAlign=middle;resizable=0;points=[];" vertex="1" connectable="0" parent="O90Jl7bZLR4odMNvlkuS-19">
          <mxGeometry x="-0.0601" y="-1" relative="1" as="geometry">
            <mxPoint as="offset" />
          </mxGeometry>
        </mxCell>
        <mxCell id="O90Jl7bZLR4odMNvlkuS-21" value="Присоединяемся ко всем боевым спискам где есть бакуганы на вороте" style="rounded=0;whiteSpace=wrap;html=1;" vertex="1" parent="O90Jl7bZLR4odMNvlkuS-23">
          <mxGeometry x="982.5" y="400" width="120" height="60" as="geometry" />
        </mxCell>
        <mxCell id="O90Jl7bZLR4odMNvlkuS-22" value="Выводим ошибку. Запрещено так делать" style="rounded=0;whiteSpace=wrap;html=1;" vertex="1" parent="O90Jl7bZLR4odMNvlkuS-23">
          <mxGeometry x="982.5" y="700" width="120" height="60" as="geometry" />
        </mxCell>
      </root>
    </mxGraphModel>
  </diagram>
</mxfile>
